# xmcd
#
# Track frame offsets:
#	150
#	13930
#	24950
#	42047
#	60475
#	72337
#	89390
#	101940
#	112325
#	127402
#
# Disc length: 1980 seconds
#
# Revision: 0
# Processed by: cddbd v1.5.2PL0 Copyright (c) Steve Scherf et al.
# Submitted via: dBpowerAMP V4.0
#
DISCID=8f07ba0a
DTITLE=Hank Williams Jr. - Maverick
DYEAR=1992
DGENRE=Country
TTITLE0=Come on Over to The Country
TTITLE1=Lyin' Jukebox
TTITLE2=Wild Weekend
TTITLE3=The Count Song
TTITLE4=I Know What You've Got up Your Sleeve
TTITLE5=Hotel Whiskey 
TTITLE6=Fax me a Beer
TTITLE7=Low Down Blues
TTITLE8=A Little Less Talk And a Lot More Action
TTITLE9=Cut Bank, Montana
EXTD=
EXTT0=
EXTT1=
EXTT2=
EXTT3=
EXTT4=
EXTT5=
EXTT6=
EXTT7=
EXTT8=
EXTT9=
PLAYORDER=
